<svg version="1.1" id="Layer_1" xmlns="http://www.w3.org/2000/svg" xmlns:xlink="http://www.w3.org/1999/xlink" x="0px" y="0px"
	 width="100%" viewBox="0 0 1024 1024" enable-background="new 0 0 1024 1024" xml:space="preserve">
<path fill="#2C97FF" opacity="1.000000" stroke="none" 
	d="
M1025.000000,198.000000 
	C1025.000000,397.693512 1025.000000,597.387024 1024.730225,797.810059 
	C1023.641296,803.534424 1022.589600,808.503967 1022.044617,813.528564 
	C1020.148987,831.005066 1016.978882,848.168213 1010.758972,864.698425 
	C1009.663269,867.610596 1009.488403,870.869202 1008.857056,874.326294 
	C992.010376,914.945435 965.568420,947.305237 929.080688,971.278320 
	C904.937317,987.140808 878.609192,997.563599 849.708374,1001.651550 
	C848.321350,1001.789734 847.187195,1002.161560 845.781860,1002.706665 
	C844.662231,1002.887878 843.813782,1002.895996 842.668823,1002.654480 
	C840.430542,1002.836243 838.488892,1003.267639 836.251221,1003.824768 
	C835.489990,1003.665955 835.024780,1003.381409 834.055908,1003.067749 
	C821.602600,1003.030090 809.652283,1002.958252 797.704163,1003.090027 
	C796.145020,1003.107239 794.597412,1004.171326 792.593323,1004.856934 
	C788.747742,1004.941895 785.353394,1004.920593 781.635742,1004.645630 
	C779.831482,1004.262329 778.350525,1004.019470 776.869507,1004.019348 
	C601.355774,1004.000977 425.842010,1003.997986 250.328293,1004.035828 
	C248.568909,1004.036194 246.809677,1004.589294 244.616272,1004.961670 
	C240.962280,1004.788574 237.742416,1004.538208 234.149139,1004.024536 
	C232.171738,1003.514465 230.569305,1003.066345 228.963486,1003.054016 
	C218.903244,1002.976562 208.842010,1002.958069 198.781769,1003.023193 
	C197.202744,1003.033386 195.627106,1003.568298 193.627472,1003.915161 
	C189.733261,1003.632629 186.243073,1003.425720 182.792480,1002.938477 
	C149.404114,998.223755 118.664955,986.613342 91.094757,967.094849 
	C55.825771,942.125793 30.431604,909.429626 15.352354,868.703247 
	C15.654172,867.961792 15.923717,867.413208 15.782083,867.008545 
	C8.579832,846.427795 3.956944,825.333313 2.877455,803.502625 
	C2.834779,802.639587 1.651714,801.832947 1.000003,801.000000 
	C1.000000,597.306458 1.000000,393.612946 1.219746,189.127014 
	C3.350098,169.969681 6.655396,151.872864 12.984143,134.487274 
	C37.327694,67.613533 83.736984,24.717026 152.783463,6.870450 
	C163.323914,4.146038 174.251480,2.919389 185.000000,1.000000 
	C404.360199,1.000000 623.720398,1.000000 843.768066,1.336828 
	C850.700073,2.550508 857.009521,3.106495 863.178772,4.355243 
	C910.297424,13.892830 949.480774,36.843983 979.846375,74.277672 
	C999.380371,98.358505 1012.632324,125.554146 1018.725769,156.227661 
	C1018.819336,157.083847 1019.117676,157.731339 1019.347046,158.472565 
	C1019.278137,158.566315 1019.081970,158.441071 1019.055786,158.909393 
	C1020.388428,171.589493 1021.719055,183.804642 1023.176758,196.004593 
	C1023.263672,196.731964 1024.368774,197.337662 1025.000000,198.000000 
M646.738586,335.940582 
	C647.004517,336.151947 647.270447,336.363312 647.579651,336.350586 
	C647.579651,336.350586 647.467407,336.549316 647.895935,337.009338 
	C648.910461,337.737335 649.924988,338.465302 650.942627,339.088837 
	C650.942627,339.088837 650.838684,339.099457 651.152954,339.692169 
	C653.095703,340.741486 655.038391,341.790771 657.348083,343.076630 
	C657.348083,343.076630 657.784607,343.084229 657.978149,343.838745 
	C661.113159,344.829346 664.248108,345.819946 667.149475,347.334351 
	C667.869141,347.550537 668.588745,347.955658 669.308533,347.956055 
	C728.284912,347.988617 787.261292,347.994293 846.237610,347.948486 
	C847.103760,347.947815 847.969360,347.277893 849.345520,346.352081 
	C860.841858,344.528656 869.143494,337.855957 876.347107,329.115631 
	C877.827148,325.329559 879.307190,321.543488 880.826477,317.907227 
	C880.826477,317.907227 880.672241,317.921051 881.331421,317.488586 
	C881.890015,314.772308 882.923706,312.057892 882.934387,309.339478 
	C883.052429,279.435608 883.011475,249.531113 883.013000,219.626801 
	C883.013550,208.803513 883.067932,197.979614 882.953369,187.157532 
	C882.935486,185.472427 882.143005,183.795532 881.216248,181.560471 
	C880.279663,178.591064 879.630737,175.491608 878.357117,172.674545 
	C872.547791,159.824966 862.204041,152.529480 848.962952,148.536392 
	C848.534241,148.359253 848.105591,148.027069 847.676819,148.026932 
	C788.823425,148.007004 729.970093,148.002228 671.116760,148.072128 
	C669.790405,148.073700 668.465027,148.935532 666.568604,149.851929 
	C656.450439,151.609207 648.932922,157.487289 641.891663,165.351807 
	C641.598267,165.914322 641.304932,166.476822 640.991089,167.001389 
	C640.991089,167.001389 641.034119,167.002686 640.453003,167.319580 
	C640.000549,168.267197 639.548096,169.214813 639.069275,170.050217 
	C639.069275,170.050217 639.183533,170.034973 638.668274,170.391708 
	C638.472900,170.969620 638.277527,171.547531 638.063110,172.051605 
	C638.063110,172.051605 638.138977,172.044266 637.623779,172.433533 
	C637.484192,173.044022 637.344543,173.654510 637.173645,174.096283 
	C637.173645,174.096283 637.345154,174.090637 636.694458,174.431808 
	C635.507568,177.316208 633.404724,180.166336 633.295349,183.091064 
	C632.863892,194.622650 632.939636,206.178986 633.065918,217.723526 
	C633.140320,224.525558 633.839417,231.319992 633.943665,238.122650 
	C634.101013,248.386795 634.089844,258.656525 633.957031,268.921356 
	C633.787231,282.045746 633.085266,295.173309 633.303162,308.288055 
	C633.398804,314.048859 633.514893,320.323059 638.282898,324.824127 
	C638.282898,324.824127 638.312195,324.652557 638.253357,325.340820 
	C638.669006,325.817963 639.084595,326.295135 639.275024,326.807434 
	C639.275024,326.807434 639.282959,326.579681 639.377136,327.132568 
	C639.611145,327.413025 639.845154,327.693512 640.010803,327.980713 
	C640.010803,327.980713 640.039368,327.918243 640.137451,328.536041 
	C640.518921,328.990875 640.900391,329.445709 641.640869,329.951904 
	C641.805542,330.128906 641.976746,330.299347 642.191528,330.747986 
	C642.191528,330.747986 642.455444,330.861267 642.809448,331.335663 
	C643.701782,332.411316 644.594116,333.486938 645.680664,334.344727 
	C645.680664,334.344727 645.441956,334.512634 645.745483,334.924225 
	C646.008179,335.139862 646.270874,335.355530 646.535461,335.450256 
	C646.535461,335.450256 646.440186,335.524689 646.738586,335.940582 
M262.590485,490.632965 
	C262.590485,490.632965 262.253082,490.716644 262.365570,491.247864 
	C262.629364,491.486969 262.893158,491.726074 263.058502,491.951477 
	C263.058502,491.951477 263.082031,491.854919 263.121613,492.492615 
	C263.476440,492.985718 263.831238,493.478821 264.067566,493.953217 
	C264.067566,493.953217 264.096954,493.836914 264.125305,494.475983 
	C264.469238,494.976929 264.813202,495.477844 265.051941,495.959412 
	C265.051941,495.959412 265.079742,495.856110 265.120087,496.488739 
	C265.461884,496.985931 265.803711,497.483093 266.046936,497.962280 
	C266.046936,497.962280 266.072662,497.865417 266.117249,498.494873 
	C266.457703,498.990051 266.798126,499.485229 267.043701,499.962830 
	C267.043701,499.962830 267.068634,499.869659 267.120758,500.500092 
	C267.467377,500.992340 267.813965,501.484619 268.053802,501.958160 
	C268.053802,501.958160 268.081299,501.853333 268.123108,502.490570 
	C268.474518,502.985016 268.825928,503.479462 269.067139,503.953339 
	C269.067139,503.953339 269.098206,503.845612 269.048187,504.623322 
	C269.755524,505.720154 270.462860,506.816956 271.087433,507.923737 
	C271.087433,507.923737 271.092682,507.840546 271.121429,508.480927 
	C271.471069,508.979340 271.820709,509.477753 272.058899,509.957031 
	C272.058899,509.957031 272.087463,509.847626 272.119415,510.485504 
	C272.468231,510.982788 272.817047,511.480042 273.055634,511.958069 
	C273.055634,511.958069 273.083801,511.849762 273.125427,512.489502 
	C273.482208,512.983459 273.838959,513.477356 274.071411,513.950195 
	C274.071411,513.950195 274.103699,513.828308 274.126892,514.473999 
	C274.482605,514.972961 274.838318,515.471924 275.069824,515.952454 
	C275.069824,515.952454 275.099182,515.830383 275.134583,516.474121 
	C275.495087,516.965210 275.855591,517.456238 276.742340,518.285950 
	C277.188599,519.433655 277.634857,520.581421 278.116058,522.395935 
	C278.473175,522.924255 278.830292,523.452637 279.063812,523.955200 
	C279.063812,523.955200 279.099457,523.834106 279.121979,524.479248 
	C279.479889,524.976135 279.837799,525.473083 280.072693,525.950684 
	C280.072693,525.950684 280.103394,525.830017 280.127502,526.473938 
	C280.479218,526.974609 280.830902,527.475220 281.064209,527.954285 
	C281.064209,527.954285 281.095917,527.838196 281.120758,528.480286 
	C281.474213,528.978638 281.827667,529.476929 282.063599,529.954773 
	C282.063599,529.954773 282.094086,529.839478 282.123108,530.482239 
	C282.478943,530.979126 282.834778,531.475952 283.068054,531.953064 
	C283.068054,531.953064 283.098511,531.832703 283.128601,532.474670 
	C283.478333,532.975647 283.828033,533.476624 284.060791,533.956360 
	C284.060791,533.956360 284.091614,533.841553 284.125000,534.485291 
	C284.485016,534.979431 284.845001,535.473511 285.079926,535.946472 
	C285.079926,535.946472 285.113586,535.824158 285.109192,536.441223 
	C285.392303,536.957275 285.675385,537.473267 286.091736,538.360229 
	C286.091736,538.360229 286.058136,538.752869 286.310730,539.260437 
	C286.598511,539.499146 286.886261,539.737854 287.055511,539.944824 
	C287.055511,539.944824 287.096588,539.829224 287.118896,540.476501 
	C287.474487,540.978638 287.830078,541.480713 288.058899,541.960327 
	C288.058899,541.960327 288.090576,541.835571 288.123383,542.481445 
	C288.480743,542.982056 288.838135,543.482727 289.062317,543.955139 
	C289.062317,543.955139 289.100281,543.824402 289.120148,544.472351 
	C289.474457,544.975586 289.828766,545.478821 290.057129,545.963501 
	C290.057129,545.963501 290.084503,545.839172 290.130554,546.481506 
	C290.482178,546.981812 290.833771,547.482178 291.058228,547.959106 
	C291.058228,547.959106 291.090790,547.834045 291.124268,548.479736 
	C291.480194,548.980652 291.836151,549.481567 292.059418,549.959839 
	C292.059418,549.959839 292.091217,549.829102 292.136566,550.480530 
	C292.515259,550.966553 292.893951,551.452515 293.744904,552.169495 
	C293.859375,552.667603 293.973846,553.165710 294.121460,554.351440 
	C294.488556,554.895874 294.855621,555.440308 295.073883,555.944397 
	C295.073883,555.944397 295.125671,555.799133 295.128448,556.455688 
	C295.486603,556.963684 295.844757,557.471741 296.066528,557.956909 
	C296.066528,557.956909 296.099640,557.822632 296.130005,558.473511 
	C296.492340,558.975220 296.854645,559.476990 297.073456,559.947449 
	C297.073456,559.947449 297.116272,559.806885 297.126282,560.460876 
	C297.483459,560.967407 297.840607,561.473877 298.063721,561.958069 
	C298.063721,561.958069 298.095856,561.826050 298.131897,562.477234 
	C298.498962,562.975708 298.866028,563.474243 299.083618,563.939636 
	C299.083618,563.939636 299.129730,563.793701 299.131134,564.453857 
	C299.496216,564.960632 299.861298,565.467407 300.080902,565.945618 
	C300.080902,565.945618 300.121918,565.803223 300.128204,566.461426 
	C300.495392,566.965027 300.862549,567.468628 301.082458,567.945862 
	C301.082458,567.945862 301.121521,567.801392 301.132507,568.460022 
	C301.502106,568.963928 301.871735,569.467773 302.087708,569.938599 
	C302.087708,569.938599 302.134369,569.788574 302.136444,570.451111 
	C302.505493,570.957214 302.874512,571.463318 303.090637,571.936829 
	C303.090637,571.936829 303.137390,571.787598 303.130646,572.449402 
	C303.494812,572.957825 303.858948,573.466187 304.078857,573.948120 
	C304.078857,573.948120 304.117493,573.806641 304.129425,574.466309 
	C304.506042,574.964294 304.882629,575.462219 305.104126,575.923584 
	C305.104126,575.923584 305.156860,575.773254 305.135925,576.440491 
	C305.507416,576.949280 305.878906,577.458008 306.092224,577.946167 
	C306.092224,577.946167 306.126617,577.790405 306.156281,578.468628 
	C306.569916,578.953369 306.983551,579.438171 307.863251,580.272644 
	C308.270111,581.340637 308.676971,582.408630 309.057220,584.277710 
	C310.030548,585.851013 311.003906,587.424377 312.166260,589.212646 
	C312.166260,589.212646 312.084564,589.487000 312.056061,590.288818 
	C313.040009,591.859985 314.023956,593.431091 315.196136,595.178894 
	C315.196136,595.178894 315.062653,595.399902 315.061188,596.238647 
	C317.719543,601.162292 320.377899,606.085938 323.217316,611.176270 
	C323.217316,611.176270 323.076569,611.378052 323.056610,612.197388 
	C324.056427,613.790100 325.056244,615.382874 325.994354,616.978699 
	C325.994354,616.978699 326.029816,616.928162 326.125427,617.528381 
	C326.440857,618.013855 326.756287,618.499390 327.005157,618.978271 
	C327.005157,618.978271 327.034149,618.918030 327.124939,619.522278 
	C327.443817,620.009460 327.762695,620.496704 328.012939,620.975525 
	C328.012939,620.975525 328.041901,620.912720 328.037720,621.676392 
	C328.728149,622.774292 329.418610,623.872131 330.659607,625.389648 
	C337.414001,638.933838 344.168365,652.477966 350.687683,666.269775 
	C350.880249,666.476196 351.072784,666.682678 351.141327,666.911926 
	C351.141327,666.911926 351.139282,666.785828 351.135559,667.447632 
	C351.499359,667.956970 351.863159,668.466370 352.077698,668.946289 
	C352.077698,668.946289 352.119293,668.799988 352.137421,669.465088 
	C352.528717,669.953979 352.920013,670.442871 353.825958,671.249878 
	C354.242706,672.359131 354.659485,673.468445 355.266724,675.105347 
	C355.490997,675.396729 355.715240,675.688110 356.142975,676.239014 
	C356.142975,676.239014 356.092773,676.564941 356.127686,677.275574 
	C356.491882,677.847107 356.856110,678.418579 357.040710,678.990845 
	C357.040710,678.990845 357.044678,678.811279 357.257965,679.267273 
	C357.487183,679.505554 357.716431,679.743835 358.148468,680.210693 
	C358.148468,680.210693 358.084473,680.509460 358.143036,681.252319 
	C358.568817,681.809631 358.994598,682.366882 359.815826,683.139954 
	C359.886932,683.564331 359.958038,683.988708 360.237854,685.000793 
	C360.479370,685.329468 360.720886,685.658081 361.161041,686.222900 
	C361.161041,686.222900 361.089203,686.523010 361.126160,687.246338 
	C361.499298,687.824158 361.872437,688.402039 362.083191,688.933289 
	C362.083191,688.933289 362.142792,688.775208 362.170929,689.477234 
	C362.618286,689.966492 363.065643,690.455688 363.975250,691.418701 
	C374.347595,711.994202 384.678345,732.590820 395.102173,753.140198 
	C410.523529,783.541870 434.824402,802.691467 468.474884,811.146423 
	C473.303497,811.466553 478.132141,811.786682 483.892059,811.954407 
	C490.941895,812.007568 497.991699,812.060669 505.630981,812.588074 
	C508.074371,812.427673 510.517731,812.267212 513.797485,811.948303 
	C515.211121,812.000427 516.624695,812.052551 518.688354,812.607666 
	C525.446777,812.437927 532.205261,812.268127 539.769653,811.941223 
	C540.859009,811.995117 541.948425,812.049011 543.688049,812.606445 
	C544.335693,812.735535 544.983276,812.977112 545.630981,812.977539 
	C571.276428,812.995300 596.929443,813.327209 622.562195,812.756470 
	C629.072083,812.611511 635.517883,809.586487 641.978394,807.971924 
	C641.978394,807.971924 641.892212,807.952637 642.682251,807.942566 
	C644.117188,807.314941 645.552063,806.687256 647.604492,805.678528 
	C653.716309,802.428040 659.828186,799.177490 666.309753,796.098083 
	C666.372253,795.890137 666.434753,795.682190 666.497253,795.474243 
	C666.338196,795.660461 666.179077,795.846619 665.115417,795.972534 
	C648.568848,796.434814 635.460632,789.566284 624.874207,776.495361 
	C624.456238,776.050903 624.038330,775.606445 623.760986,775.257446 
	C623.760986,775.257446 623.639160,775.375977 623.742676,774.670715 
	C623.102173,774.147766 622.461731,773.624756 621.929321,773.052002 
	C621.929321,773.052002 621.969971,773.163757 621.713196,772.698792 
	C621.445435,772.473145 621.177612,772.247498 620.980225,772.022949 
	C620.980225,772.022949 620.955933,772.089050 620.879639,771.458008 
	C620.489380,770.995850 620.099182,770.533691 619.908142,770.052368 
	C619.908142,770.052368 619.914001,770.252380 619.686462,769.736145 
	C619.397644,769.503906 619.108826,769.271667 618.930969,769.060425 
	C618.930969,769.060425 618.898499,769.168579 618.871582,768.511658 
	C618.466187,768.043701 618.060730,767.575684 617.861694,767.067261 
	C617.861694,767.067261 617.884338,767.276367 617.670349,766.748657 
	C617.378235,766.515259 617.086121,766.281921 616.912109,766.075256 
	C616.912109,766.075256 616.871033,766.189270 616.929504,765.450928 
	C616.240234,764.647705 615.551025,763.844482 614.400635,762.797974 
	C614.237732,762.320129 614.074768,761.842224 613.725464,760.838196 
	C613.487244,760.559692 613.249023,760.281250 612.825073,759.820923 
	C612.825073,759.820923 612.919800,759.578918 612.933533,758.778564 
	C612.248535,757.871948 611.563599,756.965393 610.954407,756.049683 
	C610.954407,756.049683 610.935669,756.123718 610.882263,755.500671 
	C610.547302,755.005859 610.212341,754.511047 609.963928,754.032715 
	C609.963928,754.032715 609.941284,754.117798 609.875000,753.493103 
	C609.525635,753.009338 609.176208,752.525635 608.345520,751.773560 
	C608.209717,751.253174 608.073853,750.732727 607.883728,749.562439 
	C607.532532,749.047729 607.181335,748.533081 606.944031,748.041626 
	C606.944031,748.041626 606.911926,748.153381 606.877991,747.514221 
	C606.527222,747.017456 606.176514,746.520630 605.939331,746.043884 
	C605.939331,746.043884 605.909607,746.155273 605.880493,745.518188 
	C605.535400,745.018860 605.190308,744.519531 604.949585,744.039185 
	C604.949585,744.039185 604.922363,744.141724 604.876526,743.504700 
	C604.521118,743.012329 604.165771,742.519958 603.932251,742.047607 
	C603.932251,742.047607 603.901489,742.167236 603.872192,741.524841 
	C603.522949,741.024292 603.173706,740.523804 602.939575,740.044067 
	C602.939575,740.044067 602.909180,740.157043 602.879272,739.519836 
	C602.535339,739.020569 602.191467,738.521240 601.949524,738.039856 
	C601.949524,738.039856 601.923523,738.140076 601.876526,737.505127 
	C601.525574,737.011719 601.174561,736.518250 600.939331,736.044495 
	C600.939331,736.044495 600.909851,736.158142 600.872192,735.516846 
	C600.510559,735.028442 600.148865,734.539978 599.314575,733.774719 
	C599.189392,733.253174 599.064148,732.731689 598.884949,731.560791 
	C598.533691,731.046753 598.182434,730.532715 597.944336,730.041687 
	C597.944336,730.041687 597.912598,730.152771 597.875305,729.511658 
	C597.516907,729.017151 597.158508,728.522583 596.922607,728.051758 
	C596.922607,728.051758 596.887024,728.171326 596.947998,727.387329 
	C596.223572,726.299133 595.499207,725.210938 594.869812,724.099792 
	C594.869812,724.099792 594.871948,724.197510 594.865234,723.541321 
	C594.499023,723.040222 594.132874,722.539185 593.909119,722.059937 
	C593.909119,722.059937 593.873169,722.199463 593.854370,721.533997 
	C593.460144,721.048035 593.065918,720.562134 592.228638,719.809204 
	C592.122498,719.314331 592.016357,718.819458 591.866760,717.645325 
	C591.497498,717.116455 591.128235,716.587646 590.198608,715.664001 
	C588.497437,712.100403 586.796265,708.536804 585.308716,704.708740 
	C585.109070,704.497131 584.909424,704.285461 584.235107,703.816284 
	C584.132507,703.298706 584.029907,702.781067 583.878845,701.599426 
	C583.527283,701.068848 583.175720,700.538269 582.950012,700.037231 
	C582.950012,700.037231 582.912720,700.160950 582.879272,699.518921 
	C582.528870,699.017578 582.178467,698.516235 581.969666,698.000488 
	C581.969666,698.000488 581.981506,698.142334 581.754456,697.734314 
	C581.605957,697.454163 581.401917,697.223022 580.928467,696.676758 
	C580.928467,696.676758 580.932007,696.254456 580.872742,695.593994 
	C580.510193,695.078735 580.147705,694.563538 579.299805,693.809448 
	C579.174561,693.297485 579.049316,692.785461 578.888489,691.601746 
	C578.524231,691.072571 578.159912,690.543396 577.933655,690.049561 
	C577.933655,690.049561 577.887939,690.184448 577.877930,689.529358 
	C577.509827,689.027771 577.141724,688.526184 576.947998,688.008850 
	C576.947998,688.008850 576.958435,688.183716 576.744446,687.733582 
	C576.591553,687.427246 576.366028,687.189880 575.860901,686.755981 
	C575.860901,686.755981 575.906128,686.422302 575.869202,685.714783 
	C575.503662,685.147827 575.138123,684.580811 574.924866,684.068481 
	C574.924866,684.068481 574.858276,684.216003 574.865051,683.550049 
	C574.487793,683.046814 574.110535,682.543579 573.893066,682.068359 
	C573.893066,682.068359 573.848511,682.224426 573.854919,681.556763 
	C573.477600,681.053589 573.100281,680.550354 572.917664,680.030396 
	C572.917664,680.030396 572.924133,680.225647 572.736145,679.741638 
	C572.499939,679.497375 572.263794,679.253052 571.833130,678.799377 
	C571.833130,678.799377 571.916809,678.526062 571.941040,677.705383 
	C570.800049,675.828552 569.659058,673.951660 568.142639,671.827209 
	C568.070435,671.396973 567.998291,670.966797 567.876892,669.799500 
	C567.503601,669.207153 567.130371,668.614746 566.902344,668.100159 
	C566.902344,668.100159 566.811096,668.237366 566.913635,667.454163 
	C565.272034,664.634705 563.630493,661.815247 561.800049,658.826050 
	C561.800049,658.826050 561.931274,658.608765 561.939453,657.816528 
	C561.289429,656.876282 560.639404,655.936096 559.803040,654.798340 
	C559.803040,654.798340 559.980042,654.592468 559.747498,653.992554 
	C559.481873,653.665344 559.216309,653.338135 559.007263,653.014771 
	C559.007263,653.014771 558.974915,653.061462 558.875122,652.463074 
	C558.570374,651.969055 558.265564,651.474976 557.785400,650.817627 
	C557.785400,650.817627 557.923584,650.621765 557.944336,649.803101 
	C556.947693,648.208557 555.951050,646.614075 555.008728,645.018250 
	C555.008728,645.018250 554.973389,645.059692 554.958984,644.307922 
	C554.292419,643.211060 553.625916,642.114258 553.009827,641.015381 
	C553.009827,641.015381 552.977661,641.054260 552.874390,640.461609 
	C552.563171,639.978699 552.252014,639.495728 552.002869,639.017334 
	C552.002869,639.017334 551.970459,639.070435 551.874146,638.470825 
	C551.559265,637.985413 551.244446,637.500000 550.995789,637.021057 
	C550.995789,637.021057 550.966125,637.080566 550.873718,636.475342 
	C550.552246,635.988892 550.230713,635.502380 549.979431,635.028687 
	C549.979431,635.028687 549.954224,635.095459 549.956055,634.335754 
	C549.284180,633.232422 548.612305,632.129150 548.003784,631.022461 
	C548.003784,631.022461 547.968872,631.075562 547.872925,630.473694 
	C547.554321,629.987610 547.235718,629.501465 546.986450,629.024780 
	C546.986450,629.024780 546.962402,629.090332 546.874878,628.483459 
	C546.556274,627.994263 546.237732,627.505005 545.987915,627.023499 
	C545.987915,627.023499 545.962952,627.088013 545.861816,626.438660 
	C545.506165,625.906860 545.150513,625.375000 544.229736,624.482361 
	C538.824524,613.671448 533.416809,602.861694 528.014526,592.049377 
	C483.676697,503.310211 439.459045,414.510742 394.922302,325.871582 
	C383.192352,302.526001 363.935913,288.755646 337.647552,284.029633 
	C336.265350,283.690399 334.883667,283.057159 333.500916,283.054901 
	C298.543884,282.997894 263.586670,282.988251 228.629700,283.061676 
	C226.912460,283.065277 225.196945,283.896332 222.976898,284.839294 
	C221.201630,285.133331 219.397873,285.311493 217.655746,285.740204 
	C206.710266,288.433655 198.657211,295.206573 191.353439,304.178070 
	C190.935196,305.235535 190.516953,306.292999 190.113388,307.873169 
	C189.829300,308.271149 189.545212,308.669128 188.573212,309.327057 
	C187.046707,315.279694 184.720566,321.170410 184.253372,327.205048 
	C183.896561,331.814178 183.576599,337.272308 188.139679,341.298767 
	C188.139679,341.298767 188.095062,341.647522 188.043808,342.477875 
	C188.265182,343.767761 188.201508,345.196869 188.752899,346.325531 
	C193.263382,355.558167 197.854752,364.752045 202.532455,373.901001 
	C202.986801,374.789642 204.190201,375.295319 204.990921,375.980560 
	C204.990921,375.980560 205.026947,375.938965 205.119537,376.536407 
	C205.425430,377.029510 205.731339,377.522614 206.216629,378.171387 
	C206.216629,378.171387 206.088562,378.371429 206.062241,379.213745 
	C206.529770,380.784882 206.778870,382.464630 207.497742,383.910828 
	C217.564514,404.162537 227.671371,424.394501 237.865555,444.582275 
	C238.536423,445.910828 239.993698,446.842224 241.013351,447.970703 
	C241.013351,447.970703 241.045517,447.905304 241.115036,448.514648 
	C241.436279,449.003845 241.757523,449.493073 242.010712,449.975464 
	C242.010712,449.975464 242.043243,449.915283 242.037704,450.671997 
	C242.709015,451.773560 243.380310,452.875092 243.992737,453.977570 
	C243.992737,453.977570 244.031998,453.933716 244.033051,454.727112 
	C246.053329,458.469482 248.073624,462.211884 250.019501,465.967316 
	C250.019501,465.967316 250.054062,465.900116 250.032761,466.685760 
	C251.046677,468.445465 252.060577,470.205139 253.004578,471.971832 
	C253.004578,471.971832 253.043945,471.913635 253.036240,472.699280 
	C254.062576,474.447418 255.088913,476.195526 256.039734,477.955750 
	C256.039734,477.955750 256.061554,477.882477 256.110992,478.505463 
	C256.446472,478.997894 256.781921,479.490326 257.035736,479.966858 
	C257.035736,479.966858 257.057770,479.886658 257.114380,480.507111 
	C257.447968,480.998749 257.781525,481.490387 258.034058,481.966309 
	C258.034058,481.966309 258.055725,481.886688 258.121918,482.507294 
	C258.456665,482.998688 258.791382,483.490051 259.038239,483.964478 
	C259.038239,483.964478 259.061798,483.878113 259.121429,484.502686 
	C259.460175,484.995117 259.798889,485.487579 260.044159,485.962952 
	C260.044159,485.962952 260.068604,485.871124 260.119232,486.501373 
	C260.472260,486.986542 260.825287,487.471710 261.669708,488.277008 
	C261.840515,488.831299 262.011322,489.385590 261.907074,490.177582 
	C262.119202,490.214569 262.331360,490.251556 262.590485,490.632965 
M707.324097,438.934845 
	C697.539307,440.616333 687.906494,442.167328 678.700500,446.732849 
	C659.403931,456.302704 644.359009,470.054199 634.135681,488.866211 
	C608.859070,535.377808 583.858459,582.039307 558.613831,628.568298 
	C556.973083,631.592529 557.004333,633.830078 558.523621,636.820190 
	C572.955933,665.224487 587.085571,693.783386 601.629456,722.129883 
	C609.265381,737.012512 616.932983,751.945374 625.742676,766.137817 
	C632.648926,777.263855 642.764648,785.269348 656.363953,787.375183 
	C668.738770,789.291443 680.024597,787.941650 687.513855,776.117798 
	C691.244141,770.228516 695.541809,764.656433 698.832947,758.537537 
	C755.744873,652.725281 812.541748,546.851135 869.327026,440.970856 
	C869.796692,440.095154 869.763916,438.949921 869.328979,437.407013 
	C868.514709,437.272461 867.700439,437.020416 866.886108,437.020111 
	C815.389038,437.001343 763.892029,436.989716 712.395081,437.070801 
	C710.931580,437.073090 709.469727,438.082275 707.324097,438.934845 
z"/>
</svg>
